<svg data-v-0dd9719b="" version="1.0" xmlns="http://www.w3.org/2000/svg" xmlns:xlink="http://www.w3.org/1999/xlink" width="100%" height="100%" viewBox="0 0 340.000000 250.000000" preserveAspectRatio="xMidYMid meet" color-interpolation-filters="sRGB" style="margin: auto;"> <rect data-v-0dd9719b="" x="0" y="0" width="100%" height="100%" fill="#fff" fill-opacity="1" class="background"></rect> <rect data-v-0dd9719b="" x="0" y="0" width="100%" height="100%" fill="url(#watermark)" fill-opacity="1" class="watermarklayer"></rect> <g data-v-0dd9719b="" fill="#ed6c00" class="icon-text-wrapper icon-svg-group iconsvg" transform="translate(49.33665466308594,96.62699317932129)"><g class="iconsvg-imagesvg" transform="translate(0,5.047212600708008)"><g><rect fill="#ed6c00" fill-opacity="0" stroke-width="2" x="0" y="0" width="60" height="46.65158265494157" class="image-rect"></rect> <svg x="0" y="0" width="60" height="46.65158265494157" filtersec="colorsb5275020157" class="image-svg-svg primary" style="overflow: visible;"><svg xmlns="http://www.w3.org/2000/svg" viewBox="0 0 340.3999938964844 264.6700134277344"><defs><clipPath id="aa12d1a56-b4a7-412f-992f-571eb6828cf6"><path fill="none" clip-rule="evenodd" d="M170.2 0l85.1 132.31 85.1 132.32H198.24l46.43-72.19L170.2 76.65 49.3 264.63H0l85.1-132.32L170.2 0z"></path></clipPath></defs><g><g><g clip-path="url(#aa12d1a56-b4a7-412f-992f-571eb6828cf6)"><path fill="#ed6a00" d="M0 0h.66v264.63H0z"></path><path fill="#ed6a00" d="M0 0h1.99v264.63H0z"></path><path fill="#ed6a00" d="M1.33 0h1.99v264.63H1.33z"></path><path fill="#ed6c00" d="M2.66 0h1.99v264.63H2.66z"></path><path fill="#ed6c00" d="M3.99 0h1.99v264.63H3.99z"></path><path fill="#ed6c00" d="M5.32 0h1.99v264.63H5.32z"></path><path fill="#ed6c00" d="M6.65 0h1.99v264.63H6.65z"></path><path fill="#ed6f00" d="M7.98 0h1.99v264.63H7.98z"></path><path fill="#ed6f00" d="M9.31 0h1.99v264.63H9.31z"></path><path fill="#ed6f00" d="M10.64 0h1.99v264.63h-1.99z"></path><path fill="#ed6f00" d="M11.97 0h1.99v264.63h-1.99z"></path><path fill="#ed6f00" d="M13.3 0h1.99v264.63H13.3z"></path><path fill="#ed6f00" d="M14.63 0h1.99v264.63h-1.99z"></path><path fill="#ed7100" d="M15.96 0h1.99v264.63h-1.99z"></path><path fill="#ed7100" d="M17.29 0h1.99v264.63h-1.99z"></path><path fill="#ed7100" d="M18.62 0h1.99v264.63h-1.99z"></path><path fill="#ed7100" d="M19.95 0h1.99v264.63h-1.99z"></path><path fill="#ee7300" d="M21.27 0h1.99v264.63h-1.99z"></path><path fill="#ee7300" d="M22.6 0h1.99v264.63H22.6z"></path><path fill="#ee7300" d="M23.93 0h1.99v264.63h-1.99z"></path><path fill="#ee7300" d="M25.26 0h1.99v264.63h-1.99z"></path><path fill="#ee7300" d="M26.59 0h1.99v264.63h-1.99z"></path><path fill="#ee7300" d="M27.92 0h1.99v264.63h-1.99z"></path><path fill="#ee7500" d="M29.25 0h1.99v264.63h-1.99z"></path><path fill="#ee7500" d="M30.58 0h1.99v264.63h-1.99z"></path><path fill="#ee7500" d="M31.91 0h1.99v264.63h-1.99z"></path><path fill="#ee7500" d="M33.24 0h1.99v264.63h-1.99z"></path><path fill="#ee7800" d="M34.57 0h1.99v264.63h-1.99z"></path><path fill="#ee7800" d="M35.9 0h1.99v264.63H35.9z"></path><path fill="#ee7800" d="M37.23 0h1.99v264.63h-1.99z"></path><path fill="#ee7800" d="M38.56 0h1.99v264.63h-1.99z"></path><path fill="#ee7800" d="M39.89 0h1.99v264.63h-1.99z"></path><path fill="#ee7800" d="M41.22 0h1.99v264.63h-1.99z"></path><path fill="#ef7a00" d="M42.55 0h1.99v264.63h-1.99z"></path><path fill="#ef7a00" d="M43.88 0h1.99v264.63h-1.99z"></path><path fill="#ef7a00" d="M45.21 0h1.99v264.63h-1.99z"></path><path fill="#ef7a00" d="M46.54 0h1.99v264.63h-1.99z"></path><path fill="#ef7a00" d="M47.87 0h1.99v264.63h-1.99z"></path><path fill="#ef7a00" d="M49.2 0h1.99v264.63H49.2z"></path><path fill="#ef7c00" d="M50.53 0h1.99v264.63h-1.99z"></path><path fill="#ef7c00" d="M51.86 0h1.99v264.63h-1.99z"></path><path fill="#ef7c00" d="M53.19 0h1.99v264.63h-1.99z"></path><path fill="#ef7c00" d="M54.52 0h1.99v264.63h-1.99z"></path><path fill="#ef7e00" d="M55.85 0h1.99v264.63h-1.99z"></path><path fill="#ef7e00" d="M57.18 0h1.99v264.63h-1.99z"></path><path fill="#ef7e00" d="M58.51 0h1.99v264.63h-1.99z"></path><path fill="#ef7e00" d="M59.84 0h1.99v264.63h-1.99z"></path><path fill="#ef7e00" d="M61.17 0h1.99v264.63h-1.99z"></path><path fill="#ef7e00" d="M62.5 0h1.99v264.63H62.5z"></path><path fill="#f08000" d="M63.82 0h1.99v264.63h-1.99z"></path><path fill="#f08000" d="M65.15 0h1.99v264.63h-1.99z"></path><path fill="#f08000" d="M66.48 0h1.99v264.63h-1.99z"></path><path fill="#f08300" d="M67.81 0h1.99v264.63h-1.99z"></path><path fill="#f08300" d="M69.14 0h1.99v264.63h-1.99z"></path><path fill="#f08300" d="M70.47 0h1.99v264.63h-1.99z"></path><path fill="#f08300" d="M71.8 0h1.99v264.63H71.8z"></path><path fill="#f08300" d="M73.13 0h1.99v264.63h-1.99z"></path><path fill="#f08300" d="M74.46 0h1.99v264.63h-1.99z"></path><path fill="#f08500" d="M75.79 0h1.99v264.63h-1.99z"></path><path fill="#f08500" d="M77.12 0h1.99v264.63h-1.99z"></path><path fill="#f08500" d="M78.45 0h1.99v264.63h-1.99z"></path><path fill="#f08500" d="M79.78 0h1.99v264.63h-1.99z"></path><path fill="#f18700" d="M81.11 0h1.99v264.63h-1.99z"></path><path fill="#f18700" d="M82.44 0h1.99v264.63h-1.99z"></path><path fill="#f18700" d="M83.77 0h1.99v264.63h-1.99z"></path><path fill="#f18700" d="M85.1 0h1.99v264.63H85.1z"></path><path fill="#f18700" d="M86.43 0h1.99v264.63h-1.99z"></path><path fill="#f18700" d="M87.76 0h1.99v264.63h-1.99z"></path><path fill="#f18900" d="M89.09 0h1.99v264.63h-1.99z"></path><path fill="#f18900" d="M90.42 0h1.99v264.63h-1.99z"></path><path fill="#f18900" d="M91.75 0h1.99v264.63h-1.99z"></path><path fill="#f18900" d="M93.08 0h1.99v264.63h-1.99z"></path><path fill="#f18b00" d="M94.41 0h1.99v264.63h-1.99z"></path><path fill="#f18b00" d="M95.74 0h1.99v264.63h-1.99z"></path><path fill="#f18b00" d="M97.07 0h1.99v264.63h-1.99z"></path><path fill="#f18b00" d="M98.4 0h1.99v264.63H98.4z"></path><path fill="#f18b00" d="M99.73 0h1.99v264.63h-1.99z"></path><path fill="#f18b00" d="M101.06 0h1.99v264.63h-1.99z"></path><path fill="#f18d00" d="M102.39 0h1.99v264.63h-1.99z"></path><path fill="#f18d00" d="M103.72 0h1.99v264.63h-1.99z"></path><path fill="#f18d00" d="M105.05 0h1.99v264.63h-1.99z"></path><path fill="#f18d00" d="M106.37 0h1.99v264.63h-1.99z"></path><path fill="#f18d00" d="M107.7 0h1.99v264.63h-1.99z"></path><path fill="#f18d00" d="M109.03 0h1.99v264.63h-1.99z"></path><path fill="#f28f00" d="M110.36 0h1.99v264.63h-1.99z"></path><path fill="#f28f00" d="M111.69 0h1.99v264.63h-1.99z"></path><path fill="#f28f00" d="M113.02 0h1.99v264.63h-1.99z"></path><path fill="#f28f00" d="M114.35 0h1.99v264.63h-1.99z"></path><path fill="#f29100" d="M115.68 0h1.99v264.63h-1.99z"></path><path fill="#f29100" d="M117.01 0H119v264.63h-1.99z"></path><path fill="#f29100" d="M118.34 0h1.99v264.63h-1.99z"></path><path fill="#f29100" d="M119.67 0h1.99v264.63h-1.99z"></path><path fill="#f29100" d="M121 0h1.99v264.63H121z"></path><path fill="#f29100" d="M122.33 0h1.99v264.63h-1.99z"></path><path fill="#f29300" d="M123.66 0h1.99v264.63h-1.99z"></path><path fill="#f29300" d="M124.99 0h1.99v264.63h-1.99z"></path><path fill="#f29300" d="M126.32 0h1.99v264.63h-1.99z"></path><path fill="#f29300" d="M127.65 0h1.99v264.63h-1.99z"></path><path fill="#f39500" d="M128.98 0h1.99v264.63h-1.99z"></path><path fill="#f39500" d="M130.31 0h1.99v264.63h-1.99z"></path><path fill="#f39500" d="M131.64 0h1.99v264.63h-1.99z"></path><path fill="#f39500" d="M132.97 0h1.99v264.63h-1.99z"></path><path fill="#f39500" d="M134.3 0h1.99v264.63h-1.99z"></path><path fill="#f39800" d="M135.63 0h1.99v264.63h-1.99z"></path><path fill="#f39800" d="M136.96 0h1.99v264.63h-1.99z"></path><path fill="#f39800" d="M138.29 0h1.99v264.63h-1.99z"></path><path fill="#f39800" d="M139.62 0h1.99v264.63h-1.99z"></path><path fill="#f39a00" d="M140.95 0h1.99v264.63h-1.99z"></path><path fill="#f39a00" d="M142.28 0h1.99v264.63h-1.99z"></path><path fill="#f39a00" d="M143.61 0h1.99v264.63h-1.99z"></path><path fill="#f39a00" d="M144.94 0h1.99v264.63h-1.99z"></path><path fill="#f39a00" d="M146.27 0h1.99v264.63h-1.99z"></path><path fill="#f39a00" d="M147.6 0h1.99v264.63h-1.99z"></path><path fill="#f49c00" d="M148.92 0h1.99v264.63h-1.99z"></path><path fill="#f49c00" d="M150.25 0h1.99v264.63h-1.99z"></path><path fill="#f49c00" d="M151.58 0h1.99v264.63h-1.99z"></path><path fill="#f49c00" d="M152.91 0h1.99v264.63h-1.99z"></path><path fill="#f49e00" d="M154.24 0h1.99v264.63h-1.99z"></path><path fill="#f49e00" d="M155.57 0h1.99v264.63h-1.99z"></path><path fill="#f49e00" d="M156.9 0h1.99v264.63h-1.99z"></path><path fill="#f49e00" d="M158.23 0h1.99v264.63h-1.99z"></path><path fill="#f49e00" d="M159.56 0h1.99v264.63h-1.99z"></path><path fill="#f49e00" d="M160.89 0h1.99v264.63h-1.99z"></path><path fill="#f5a000" d="M162.22 0h1.99v264.63h-1.99z"></path><path fill="#f5a000" d="M163.55 0h1.99v264.63h-1.99z"></path><path fill="#f5a000" d="M164.88 0h1.99v264.63h-1.99z"></path><path fill="#f5a000" d="M166.21 0h1.99v264.63h-1.99z"></path><path fill="#f5a200" d="M167.54 0h1.99v264.63h-1.99z"></path><path fill="#f5a200" d="M168.87 0h1.99v264.63h-1.99z"></path><path fill="#f5a200" d="M170.2 0h1.99v264.63h-1.99z"></path><path fill="#f5a200" d="M171.53 0h1.99v264.63h-1.99z"></path><path fill="#f5a200" d="M172.86 0h1.99v264.63h-1.99z"></path><path fill="#f5a200" d="M174.19 0h1.99v264.63h-1.99z"></path><path fill="#f5a400" d="M175.52 0h1.99v264.63h-1.99z"></path><path fill="#f5a400" d="M176.85 0h1.99v264.63h-1.99z"></path><path fill="#f5a400" d="M178.18 0h1.99v264.63h-1.99z"></path><path fill="#f5a400" d="M179.51 0h1.99v264.63h-1.99z"></path><path fill="#f5a400" d="M180.84 0h1.99v264.63h-1.99z"></path><path fill="#f5a400" d="M182.17 0h1.99v264.63h-1.99z"></path><path fill="#f5a500" d="M183.5 0h1.99v264.63h-1.99z"></path><path fill="#f5a500" d="M184.83 0h1.99v264.63h-1.99z"></path><path fill="#f5a500" d="M186.16 0h1.99v264.63h-1.99z"></path><path fill="#f5a500" d="M187.49 0h1.99v264.63h-1.99z"></path><path fill="#f6a700" d="M188.82 0h1.99v264.63h-1.99z"></path><path fill="#f6a700" d="M190.15 0h1.99v264.63h-1.99z"></path><path fill="#f6a700" d="M191.47 0h1.99v264.63h-1.99z"></path><path fill="#f6a700" d="M192.8 0h1.99v264.63h-1.99z"></path><path fill="#f6a700" d="M194.13 0h1.99v264.63h-1.99z"></path><path fill="#f6a700" d="M195.46 0h1.99v264.63h-1.99z"></path><path fill="#f6a900" d="M196.79 0h1.99v264.63h-1.99z"></path><path fill="#f6a900" d="M198.12 0h1.99v264.63h-1.99z"></path><path fill="#f6a900" d="M199.45 0h1.99v264.63h-1.99z"></path><path fill="#f6a900" d="M200.78 0h1.99v264.63h-1.99z"></path><path fill="#f6ab00" d="M202.11 0h1.99v264.63h-1.99z"></path><path fill="#f6ab00" d="M203.44 0h1.99v264.63h-1.99z"></path><path fill="#f6ab00" d="M204.77 0h1.99v264.63h-1.99z"></path><path fill="#f6ab00" d="M206.1 0h1.99v264.63h-1.99z"></path><path fill="#f6ab00" d="M207.43 0h1.99v264.63h-1.99z"></path><path fill="#f7ad00" d="M208.76 0h1.99v264.63h-1.99z"></path><path fill="#f7ad00" d="M210.09 0h1.99v264.63h-1.99z"></path><path fill="#f7ad00" d="M211.42 0h1.99v264.63h-1.99z"></path><path fill="#f7ad00" d="M212.75 0h1.99v264.63h-1.99z"></path><path fill="#f7af00" d="M214.08 0h1.99v264.63h-1.99z"></path><path fill="#f7af00" d="M215.41 0h1.99v264.63h-1.99z"></path><path fill="#f7af00" d="M216.74 0h1.99v264.63h-1.99z"></path><path fill="#f7af00" d="M218.07 0h1.99v264.63h-1.99z"></path><path fill="#f7af00" d="M219.4 0h1.99v264.63h-1.99z"></path><path fill="#f7af00" d="M220.73 0h1.99v264.63h-1.99z"></path><path fill="#f8b100" d="M222.06 0h1.99v264.63h-1.99z"></path><path fill="#f8b100" d="M223.39 0h1.99v264.63h-1.99z"></path><path fill="#f8b100" d="M224.72 0h1.99v264.63h-1.99z"></path><path fill="#f8b100" d="M226.05 0h1.99v264.63h-1.99z"></path><path fill="#f8b300" d="M227.38 0h1.99v264.63h-1.99z"></path><path fill="#f8b300" d="M228.71 0h1.99v264.63h-1.99z"></path><path fill="#f8b300" d="M230.04 0h1.99v264.63h-1.99z"></path><path fill="#f8b300" d="M231.37 0h1.99v264.63h-1.99z"></path><path fill="#f8b300" d="M232.69 0h1.99v264.63h-1.99z"></path><path fill="#f8b300" d="M234.02 0h1.99v264.63h-1.99z"></path><path fill="#f8b500" d="M235.35 0h1.99v264.63h-1.99z"></path><path fill="#f8b500" d="M236.68 0h1.99v264.63h-1.99z"></path><path fill="#f8b500" d="M238.01 0H240v264.63h-1.99z"></path><path fill="#f8b500" d="M239.34 0h1.99v264.63h-1.99z"></path><path fill="#f8b500" d="M240.67 0h1.99v264.63h-1.99z"></path><path fill="#f8b500" d="M242 0h1.99v264.63H242z"></path><path fill="#f9b700" d="M243.33 0h1.99v264.63h-1.99z"></path><path fill="#f9b700" d="M244.66 0h1.99v264.63h-1.99z"></path><path fill="#f9b700" d="M245.99 0h1.99v264.63h-1.99z"></path><path fill="#f9b700" d="M247.32 0h1.99v264.63h-1.99z"></path><path fill="#f9b900" d="M248.65 0h1.99v264.63h-1.99z"></path><path fill="#f9b900" d="M249.98 0h1.99v264.63h-1.99z"></path><path fill="#f9b900" d="M251.31 0h1.99v264.63h-1.99z"></path><path fill="#f9b900" d="M252.64 0h1.99v264.63h-1.99z"></path><path fill="#f9b900" d="M253.97 0h1.99v264.63h-1.99z"></path><path fill="#f9b900" d="M255.3 0h1.99v264.63h-1.99z"></path><path fill="#f9bb00" d="M256.63 0h1.99v264.63h-1.99z"></path><path fill="#f9bb00" d="M257.96 0h1.99v264.63h-1.99z"></path><path fill="#f9bb00" d="M259.29 0h1.99v264.63h-1.99z"></path><path fill="#f9bb00" d="M260.62 0h1.99v264.63h-1.99z"></path><path fill="#fabd00" d="M261.95 0h1.99v264.63h-1.99z"></path><path fill="#fabd00" d="M263.28 0h1.99v264.63h-1.99z"></path><path fill="#fabd00" d="M264.61 0h1.99v264.63h-1.99z"></path><path fill="#fabd00" d="M265.94 0h1.99v264.63h-1.99z"></path><path fill="#fabd00" d="M267.27 0h1.99v264.63h-1.99z"></path><path fill="#fabd00" d="M268.6 0h1.99v264.63h-1.99z"></path><path fill="#fabe00" d="M269.93 0h1.99v264.63h-1.99z"></path><path fill="#fabe00" d="M271.26 0h1.99v264.63h-1.99z"></path><path fill="#fabe00" d="M272.59 0h1.99v264.63h-1.99z"></path><path fill="#fac000" d="M273.92 0h1.99v264.63h-1.99z"></path><path fill="#fac000" d="M275.24 0h1.99v264.63h-1.99z"></path><path fill="#fac000" d="M276.57 0h1.99v264.63h-1.99z"></path><path fill="#fac000" d="M277.9 0h1.99v264.63h-1.99z"></path><path fill="#fac000" d="M279.23 0h1.99v264.63h-1.99z"></path><path fill="#fac000" d="M280.56 0h1.99v264.63h-1.99z"></path><path fill="#fbc200" d="M281.89 0h1.99v264.63h-1.99z"></path><path fill="#fbc200" d="M283.22 0h1.99v264.63h-1.99z"></path><path fill="#fbc200" d="M284.55 0h1.99v264.63h-1.99z"></path><path fill="#fbc200" d="M285.88 0h1.99v264.63h-1.99z"></path><path fill="#fbc400" d="M287.21 0h1.99v264.63h-1.99z"></path><path fill="#fbc400" d="M288.54 0h1.99v264.63h-1.99z"></path><path fill="#fbc400" d="M289.87 0h1.99v264.63h-1.99z"></path><path fill="#fbc400" d="M291.2 0h1.99v264.63h-1.99z"></path><path fill="#fbc400" d="M292.53 0h1.99v264.63h-1.99z"></path><path fill="#fbc400" d="M293.86 0h1.99v264.63h-1.99z"></path><path fill="#fbc600" d="M295.19 0h1.99v264.63h-1.99z"></path><path fill="#fbc600" d="M296.52 0h1.99v264.63h-1.99z"></path><path fill="#fbc600" d="M297.85 0h1.99v264.63h-1.99z"></path><path fill="#fbc600" d="M299.18 0h1.99v264.63h-1.99z"></path><path fill="#fcc800" d="M300.51 0h1.99v264.63h-1.99z"></path><path fill="#fcc800" d="M301.84 0h1.99v264.63h-1.99z"></path><path fill="#fcc800" d="M303.17 0h1.99v264.63h-1.99z"></path><path fill="#fcc800" d="M304.5 0h1.99v264.63h-1.99z"></path><path fill="#fcc800" d="M305.83 0h1.99v264.63h-1.99z"></path><path fill="#fcc800" d="M307.16 0h1.99v264.63h-1.99z"></path><path fill="#fcc900" d="M308.49 0h1.99v264.63h-1.99z"></path><path fill="#fcc900" d="M309.82 0h1.99v264.63h-1.99z"></path><path fill="#fcc900" d="M311.15 0h1.99v264.63h-1.99z"></path><path fill="#fcc900" d="M312.48 0h1.99v264.63h-1.99z"></path><path fill="#fcc900" d="M313.81 0h1.99v264.63h-1.99z"></path><path fill="#fcc900" d="M315.14 0h1.99v264.63h-1.99z"></path><path fill="#fccb00" d="M316.47 0h1.99v264.63h-1.99z"></path><path fill="#fccb00" d="M317.79 0h1.99v264.63h-1.99z"></path><path fill="#fccb00" d="M319.12 0h1.99v264.63h-1.99z"></path><path fill="#fccb00" d="M320.45 0h1.99v264.63h-1.99z"></path><path fill="#fdcd00" d="M321.78 0h1.99v264.63h-1.99z"></path><path fill="#fdcd00" d="M323.11 0h1.99v264.63h-1.99z"></path><path fill="#fdcd00" d="M324.44 0h1.99v264.63h-1.99z"></path><path fill="#fdcd00" d="M325.77 0h1.99v264.63h-1.99z"></path><path fill="#fdcd00" d="M327.1 0h1.99v264.63h-1.99z"></path><path fill="#fdcd00" d="M328.43 0h1.99v264.63h-1.99z"></path><path fill="#fdcf00" d="M329.76 0h1.99v264.63h-1.99z"></path><path fill="#fdcf00" d="M331.09 0h1.99v264.63h-1.99z"></path><path fill="#fdcf00" d="M332.42 0h1.99v264.63h-1.99z"></path><path fill="#fdcf00" d="M333.75 0h1.99v264.63h-1.99z"></path><path fill="#fdd000" d="M335.08 0h1.99v264.63h-1.99z"></path><path fill="#fdd000" d="M336.41 0h1.99v264.63h-1.99z"></path><path fill="#fdd000" d="M337.74 0h2.66v264.63h-2.66z"></path></g><path d="M180.23 264.63h-47.36l17.8-27.63L203 155.62l23.68 36.82L198 237l-17.8 27.67zm-64.66 0l17.8-27.63 61-94.79-24.17-37.57L85.1 237l-17.8 27.63z" fill="#641d87" fill-rule="evenodd"></path></g></g></svg></svg> <!----></g></g> <g transform="translate(67,0)"><g data-gra="path-name" fill-rule="" class="tp-name iconsvg-namesvg" transform="translate(0,0)"><g transform="scale(1)"><g><path d="M10.9 1.45L10.9 1.45Q12.44 3.69 12.61 3.74L12.61 3.74Q12.7 3.78 13.1 3.38L13.1 3.38Q13.62 2.81 16.83 0.83L16.83 0.83Q25.44-4.44 25.53-5.01L25.53-5.01Q25.53-5.32 23.51-4.75L23.51-4.75Q22.94-4.57 22.19-4.35L22.19-4.35Q17.49-2.9 17.31-2.86L17.31-2.86Q15.91-2.59 15.56-3.6L15.56-3.6Q15.34-4.31 15.38-9.01L15.38-9.01Q15.38-9.76 15.38-10.42L15.38-10.42Q15.38-11.21 15.38-12.57L15.38-12.57Q15.34-16.83 15.62-17.53 15.91-18.24 17.62-18.19L17.62-18.19Q18.19-18.19 18.54-18.19L18.54-18.19Q20.83-18.19 21.25-18 21.67-17.8 22.02-16.57L22.02-16.57Q25.8-4.31 37.05 1.76L37.05 1.76Q38.5 2.55 38.72 2.42L38.72 2.42Q38.85 2.37 39.11 1.8L39.11 1.8Q40.08-0.22 41.79-0.79L41.79-0.79Q42.58-1.05 42.54-1.23L42.54-1.23Q42.5-1.49 41.04-1.98L41.04-1.98Q28.34-6.46 23.38-16L23.38-16Q22.63-17.31 22.68-17.53L22.68-17.53Q22.76-18.06 25.58-18.15L25.58-18.15Q26.46-18.15 32.39-18.19L32.39-18.19Q39.68-18.24 40.8-18.28 41.92-18.33 42.14-18.68L42.14-18.68Q42.54-19.25 39.64-21.67L39.64-21.67Q38.19-22.81 37.84-22.81L37.84-22.81Q37.44-22.81 36.52-21.53L36.52-21.53Q36.17-21.01 36.12-20.96L36.12-20.96Q35.99-20.79 35.86-20.52L35.86-20.52Q35.42-19.82 34.8-19.64L34.8-19.64Q33.97-19.47 28.3-19.42L28.3-19.42Q26.59-19.42 25.58-19.42L25.58-19.42Q18.33-19.42 17.09-19.49 15.86-19.56 15.64-19.91L15.64-19.91Q15.6-19.95 15.6-20L15.6-20Q15.47-20.21 15.47-20.72 15.47-21.23 15.6-21.53L15.6-21.53Q15.78-21.88 16.13-22.08 16.48-22.28 17.75-22.81L17.75-22.81Q26.5-26.28 33.44-31.25L33.44-31.25Q35.2-32.48 35.77-32.48L35.77-32.48Q36.74-32.48 35.86-33.35L35.86-33.35Q35.24-34.01 33.4-35.42L33.4-35.42Q32.39-36.25 32.12-36.19 31.86-36.12 30.5-34.8L30.5-34.8Q24.92-29.18 17.45-24.3L17.45-24.3Q16.08-23.47 15.82-23.69L15.82-23.69Q15.34-24.04 15.38-28.13L15.38-28.13Q15.38-28.65 15.38-29.84L15.38-29.84Q15.42-33.71 15.51-34.45 15.6-35.2 16.13-35.51L16.13-35.51 16.17-35.55Q17.01-36.04 14.99-36.78L14.99-36.78Q13.97-37.13 12.13-37.62L12.13-37.62Q11.95-37.66 11.65-37.75L11.65-37.75Q10.9-37.97 10.79-37.77 10.68-37.57 10.85-36.12L10.85-36.12Q10.9-35.55 10.94-35.16L10.94-35.16Q11.12-33.4 11.16-26.92 11.21-20.43 11.03-20.08L11.03-20.08Q10.5-19.12 4.61-19.6L4.61-19.6Q4.35-19.6 4.02-19.64 3.69-19.69 3.47-19.71 3.25-19.73 3.16-19.73L3.16-19.73Q2.81-19.78 2.86-19.51 2.9-19.25 3.3-18.54L3.3-18.54Q3.69-17.8 3.89-17.73 4.09-17.67 5.41-17.93L5.41-17.93Q7.47-18.28 9.14-18.17 10.81-18.06 11.03-17.58L11.03-17.58Q11.16-17.27 11.16-10.42 11.16-3.56 11.03-3.12L11.03-3.12Q10.77-2.33 9.84-1.67L9.84-1.67Q9.27-1.27 9.38-0.94 9.49-0.62 10.9 1.45ZM57.74 3.56L57.74 3.56Q57.88 3.78 57.92 3.78L57.92 3.78Q58.32 3.78 61.92 3.03L61.92 3.03Q77.12-0.44 84.33-13.18L84.33-13.18Q85.3-14.94 85.83-14.94L85.83-14.94Q87.63-14.94 84.86-16.52L84.86-16.52Q83.85-17.09 82.62-17.89L82.62-17.89Q81.78-18.41 81.54-18.48 81.3-18.54 81.19-18.44 81.08-18.33 80.86-17.58L80.86-17.58Q78.62-10.68 72.88-5.38 67.15-0.09 58.93 2.68L58.93 2.68Q58.4 2.86 58.14 2.97 57.88 3.08 57.74 3.16 57.61 3.25 57.63 3.34 57.66 3.43 57.74 3.56ZM52.16 3.52L52.16 3.52Q54.45 4.61 55.42 2.29L55.42 2.29Q56.43-0.18 55.15-4.57L55.15-4.57Q54.67-6.24 54.56-6.97 54.45-7.69 54.82-9.62 55.2-11.56 56.07-14 56.95-16.44 58.89-21.84L58.89-21.84Q59.06-22.32 59.15-22.54L59.15-22.54Q62.05-30.5 61.92-30.59L61.92-30.59 61.88-30.63Q61.61-30.89 61.44-30.63L61.44-30.63Q61.08-30.19 58.97-25.71L58.97-25.71Q58.32-24.3 57.13-21.84L57.13-21.84Q52.16-11.34 51.24-10.11L51.24-10.11Q50.58-9.23 49.75-9.18L49.75-9.18Q49.7-9.18 49.57-9.18L49.57-9.18Q49.31-9.18 49.17-9.18L49.17-9.18Q48.03-9.14 48.03-8.7L48.03-8.7Q48.03-8.35 48.87-8.22L48.87-8.22Q50.49-8 50.93-6.37L50.93-6.37Q51.5-4.48 51.02 0.53L51.02 0.53Q50.76 2.9 52.16 3.52ZM70.49-10.02L70.49-10.02Q70.93-9.49 72.93-10.39 74.93-11.29 75.37-12.22L75.37-12.22Q75.72-13.01 75.76-14.35 75.81-15.69 75.85-23.91L75.85-23.91Q75.89-31.99 75.96-33.42 76.03-34.85 76.42-35.16L76.42-35.16Q76.55-35.24 76.6-35.29L76.6-35.29Q77.3-35.9 75.59-36.52L75.59-36.52Q74.71-36.83 72.99-37.27L72.99-37.27Q71.72-37.57 71.59-37.46 71.46-37.35 71.59-36.21L71.59-36.21Q71.89-33.57 71.94-24.39L71.94-24.39Q71.98-17.09 71.85-16.17L71.85-16.17Q71.63-14.9 70.71-14.72L70.71-14.72Q70.53-14.72 67.9-14.85L67.9-14.85Q65.92-14.94 65.87-14.85L65.87-14.85Q65.74-14.63 65.92-14.52 66.09-14.41 66.84-14.19L66.84-14.19Q68.47-13.8 69.3-12.94 70.14-12.08 70.36-10.55L70.36-10.55Q70.44-10.06 70.49-10.02ZM59.9-14.9L59.9-14.9Q60.12-14.81 60.38-14.99 60.64-15.16 61.44-16L61.44-16Q65.26-19.86 67.76-25.4L67.76-25.4Q68.73-27.47 69.02-27.93 69.3-28.39 69.79-28.61L69.79-28.61Q70.71-29 69.39-29.49L69.39-29.49Q69.04-29.62 68.47-29.79L68.47-29.79Q68.25-29.88 67.39-30.15 66.53-30.41 66.14-30.54L66.14-30.54Q64.78-31.03 64.58-30.98 64.38-30.94 64.29-29.97L64.29-29.97Q63.54-23.29 60.29-16.39L60.29-16.39Q59.63-14.99 59.9-14.9ZM84.81-19.38L84.81-19.38Q86.92-18.59 87.54-20.52L87.54-20.52Q88.2-22.54 86.7-25.18L86.7-25.18Q86.09-26.28 85.21-27.11L85.21-27.11Q82.97-29.22 80.11-30.41L80.11-30.41Q78.53-31.07 78.62-30.54L78.62-30.54Q78.66-30.32 79.01-29.88L79.01-29.88Q82.57-25.66 83.67-21.14L83.67-21.14Q83.94-20.13 84.11-19.86 84.29-19.6 84.81-19.38ZM52.69-20.43L52.69-20.43Q54.05-20.13 54.76-21.29 55.46-22.46 54.76-23.86L54.76-23.86Q53.61-26.15 49.57-26.89L49.57-26.89Q47.55-27.29 47.5-26.98L47.5-26.98Q47.46-26.76 48.12-26.1L48.12-26.1Q50.32-23.95 51.42-21.67L51.42-21.67Q51.77-21.01 51.99-20.79 52.21-20.57 52.69-20.43ZM56.6-30.15L56.6-30.15Q57.48-29.88 58.32-30.37 59.15-30.85 59.28-31.73L59.28-31.73Q59.59-33.62 57.83-35.07 56.07-36.52 52.95-37.05L52.95-37.05Q51.55-37.27 51.39-37.07 51.24-36.87 52.12-35.99L52.12-35.99Q54.54-33.49 55.59-31.29L55.59-31.29Q56.07-30.28 56.6-30.15ZM93.16 2.37L93.16 2.37Q93.3 2.42 94.44 2.24L94.44 2.24Q96.42 1.93 98.88 1.89 101.34 1.85 114.83 1.8L114.83 1.8Q131.7 1.76 132.32 1.58L132.32 1.58Q132.5 1.54 132.58 1.32L132.58 1.32Q132.85 0.66 129.73-1.76L129.73-1.76Q128.89-2.42 128.61-2.53 128.32-2.64 128.08-2.46 127.84-2.29 127.18-1.36L127.18-1.36Q127.05-1.19 126.83-0.88L126.83-0.88Q126.08 0.18 125.46 0.35 124.85 0.53 121.77 0.53L121.77 0.53Q120.76 0.53 120.19 0.53L120.19 0.53Q119.62 0.53 118.65 0.53L118.65 0.53Q115.36 0.53 114.87 0.18L114.87 0.18Q114.43-0.09 114.48-1.54L114.48-1.54Q114.48-1.58 114.48-1.71L114.48-1.71Q114.48-2.11 114.48-2.33L114.48-2.33Q114.48-2.5 114.48-2.9L114.48-2.9Q114.48-3.65 114.54-3.91 114.61-4.17 115.18-4.39 115.75-4.61 116.76-4.64 117.77-4.66 119.97-4.66L119.97-4.66Q121.07-4.66 121.68-4.66L121.68-4.66Q128.54-4.7 128.63-5.32L128.63-5.32Q128.63-5.32 128.63-5.36L128.63-5.36Q128.67-5.71 127.46-6.86 126.25-8 125.07-8.75L125.07-8.75Q124.5-9.1 124.21-8.9 123.93-8.7 122.96-7.38L122.96-7.38Q122.12-6.24 121.64-6.09 121.16-5.93 118.39-5.93L118.39-5.93Q115.31-5.93 115-6.11L115-6.11Q114.52-6.42 114.57-7.27 114.61-8.13 115.14-8.48L115.14-8.48Q116.1-9.05 113.77-9.84L113.77-9.84Q112.76-10.2 111.23-10.55L111.23-10.55Q110.39-10.72 110.32-10.59 110.26-10.46 110.35-8.96L110.35-8.96Q110.48-6.86 110.3-6.5L110.3-6.5Q109.95-5.98 107.67-5.93L107.67-5.93Q107.67-5.93 105.07-5.93L105.07-5.93Q98.22-5.93 97.56-6.33L97.56-6.33Q97.12-6.59 97.95-7.6L97.95-7.6Q98.53-8.22 98.83-8.96L98.83-8.96Q99.76-10.9 99.54-13.14L99.54-13.14Q99.45-14.19 99.14-14.15L99.14-14.15Q98.92-14.11 98.61-13.58L98.61-13.58Q97.69-11.78 95.32-10.42L95.32-10.42Q94-9.67 93.63-8.72 93.25-7.78 94-6.94L94-6.94Q94.57-6.28 95.63-6.28L95.63-6.28Q96.15-6.28 96.35-6.13 96.55-5.98 96.9-5.19L96.9-5.19Q97.34-4.26 97.49-4.15 97.65-4.04 98.53-4.17L98.53-4.17Q100.94-4.57 105.69-4.61L105.69-4.61Q106-4.61 106.52-4.61L106.52-4.61Q109.6-4.7 110.08-4.35L110.08-4.35Q110.43-4.09 110.43-2.5L110.43-2.5Q110.43-2.2 110.43-2.02L110.43-2.02Q110.43-1.76 110.43-1.32L110.43-1.32Q110.48 0.09 109.82 0.31 109.16 0.53 105.12 0.53L105.12 0.53Q103.75 0.53 102.92 0.53L102.92 0.53Q95.45 0.53 92.86 0.31L92.86 0.31Q92.15 0.26 92.15 0.4L92.15 0.4Q92.15 0.57 92.61 1.43 93.08 2.29 93.16 2.37ZM128.72-7.29L128.72-7.29Q129.68-6.81 130.47-7.36 131.26-7.91 131.26-9.05L131.26-9.05Q131.26-11.56 127.09-13.36L127.09-13.36Q125.46-14.06 125.42-14.28L125.42-14.28Q125.38-14.46 126.04-14.55 126.69-14.63 128.67-14.68L128.67-14.68Q131.57-14.77 131.86-15.18 132.14-15.6 130.39-17.18L130.39-17.18Q128.85-18.59 128.36-18.65 127.88-18.72 127.13-17.67L127.13-17.67Q126.21-16.44 125.9-16.26L125.9-16.26Q125.29-15.91 121.77-15.91L121.77-15.91Q120.23-15.91 120.19-15.91L120.19-15.91Q119.93-15.91 119.4-15.91L119.4-15.91Q115.49-15.91 114.85-16.11 114.21-16.3 114.21-17.45L114.21-17.45Q114.21-17.58 114.21-17.67L114.21-17.67Q114.21-17.8 114.21-18.02L114.21-18.02Q114.17-18.94 114.61-19.12L114.61-19.12Q115.22-19.38 120.1-19.42L120.1-19.42Q121.03-19.42 121.55-19.42L121.55-19.42Q122.56-19.42 123.33-19.42 124.1-19.42 124.78-19.45 125.46-19.47 125.93-19.47 126.39-19.47 126.76-19.49 127.13-19.51 127.35-19.51 127.57-19.51 127.77-19.53 127.97-19.56 128.06-19.58 128.14-19.6 128.21-19.62 128.28-19.64 128.3-19.67 128.32-19.69 128.36-19.73L128.36-19.73Q128.58-19.95 128.52-20.1 128.45-20.26 127.84-20.83L127.84-20.83Q126.25-22.24 125.99-22.74 125.73-23.25 126.21-23.69L126.21-23.69Q126.43-23.91 126.45-24.5 126.47-25.09 126.52-28.65L126.52-28.65Q126.56-32.56 126.65-33.24 126.74-33.93 127.27-34.28L127.27-34.28Q127.71-34.58 127.42-35.05 127.13-35.51 125.95-36.43L125.95-36.43Q124.72-37.35 124.39-37.42 124.06-37.49 123.4-36.74L123.4-36.74Q123.31-36.61 123.13-36.43L123.13-36.43Q122.56-35.77 121.57-35.66 120.59-35.55 115.05-35.55L115.05-35.55Q113.33-35.55 112.32-35.55L112.32-35.55Q104.24-35.55 103.16-35.64 102.08-35.73 100.11-36.61L100.11-36.61Q98.22-37.44 98.09-37.44L98.09-37.44Q98-37.22 98-37.13 98-37.05 98.13-35.68L98.13-35.68Q98.31-34.37 98.33-30.5 98.35-26.63 98.26-24.92L98.26-24.92Q98.17-23.25 98.2-22.87 98.22-22.5 98.39-22.32L98.39-22.32Q98.88-21.84 100.5-22.37 102.13-22.9 102.13-23.55L102.13-23.55Q102.13-23.73 102.39-23.97 102.66-24.21 102.92-24.3L102.92-24.3Q103.23-24.43 106.48-24.41 109.73-24.39 110-24.21L110-24.21Q110.65-23.91 110.65-22.5 110.65-21.09 110-20.79L110-20.79Q109.56-20.57 103.82-20.63 98.09-20.7 96.9-20.92L96.9-20.92Q96.64-20.96 96.64-20.79L96.64-20.79Q96.68-20.61 97.03-19.82L97.03-19.82Q97.43-19.03 97.58-18.92 97.73-18.81 98.61-18.94L98.61-18.94Q100.9-19.25 105.21-19.38 109.51-19.51 110-19.29L110-19.29Q110.65-18.94 110.65-17.69 110.65-16.44 110-16.08L110-16.08Q109.6-15.86 102.15-15.95 94.7-16.04 93.43-16.26L93.43-16.26Q93.03-16.35 93.08-16.13L93.08-16.13Q93.08-15.95 93.38-15.34L93.38-15.34Q93.87-14.33 94.09-14.24 94.31-14.15 95.67-14.33L95.67-14.33Q97.69-14.55 98.83-14.37L98.83-14.37Q99.1-14.33 99.54-14.5L99.54-14.5Q100.02-14.68 107.2-14.68 114.39-14.68 115-14.5L115-14.5Q115.53-14.33 116.15-14.5L116.15-14.5Q116.63-14.68 119.73-14.7 122.83-14.72 123.31-14.59L123.31-14.59Q123.75-14.41 123.84-14.15L123.84-14.15Q123.09-14.15 123.97-13.23L123.97-13.23Q124.1-13.1 124.32-12.88L124.32-12.88Q126.83-10.42 128.01-8.09L128.01-8.09Q128.36-7.43 128.72-7.29ZM122.48-20.74L122.48-20.74Q122.08-20.57 118.63-20.59 115.18-20.61 114.83-20.79L114.83-20.79Q114.21-21.05 114.21-22.54L114.21-22.54Q114.21-23.95 114.74-24.17 115.27-24.39 118.39-24.39L118.39-24.39Q121.42-24.39 122.04-24.21 122.65-24.04 122.74-23.2L122.74-23.2Q122.78-22.81 123.13-22.76L123.13-22.76Q123.88-22.68 123.57-21.84L123.57-21.84Q123.27-21.05 122.48-20.74ZM106.44-26.54L106.44-26.54Q107.09-25.8 105.64-25.66L105.64-25.66Q105.29-25.66 104.5-25.66L104.5-25.66Q104.37-25.66 104.19-25.66L104.19-25.66Q102.61-25.66 102.35-26.15 102.08-26.63 102.13-29.58L102.13-29.58Q102.13-29.84 102.13-30.01L102.13-30.01Q102.13-30.45 102.13-31.16L102.13-31.16Q102.17-33.49 102.52-33.88L102.52-33.88Q102.92-34.32 105.07-34.28L105.07-34.28 105.29-34.28Q106.13-34.28 106.61-34.28L106.61-34.28Q106.74-34.28 107.8-34.28L107.8-34.28Q110.13-34.28 110.52-33.88 110.92-33.49 110.87-31.11L110.87-31.11Q110.87-30.37 110.87-29.93L110.87-29.93Q110.87-26.81 110.68-26.24 110.48-25.66 109.42-25.66L109.42-25.66Q108.63-25.66 108.39-25.88 108.15-26.1 108.41-26.46L108.41-26.46Q108.94-27.25 108.94-27.95L108.94-27.95Q108.94-29.18 107.75-30.43 106.57-31.68 104.55-32.56L104.55-32.56Q103.01-33.22 103.01-32.83L103.01-32.83Q103.01-32.61 103.36-32.12L103.36-32.12Q105.29-29.71 106.04-27.38L106.04-27.38Q106.22-26.76 106.44-26.54ZM122.21-25.88L122.21-25.88Q121.9-25.66 119.51-25.66 117.11-25.66 116.5-25.84L116.5-25.84Q116.06-25.93 115.71-25.84L115.71-25.84Q114.57-25.53 114.32-26.1 114.08-26.67 114.04-29.71L114.04-29.71Q114.04-29.79 114.04-29.97L114.04-29.97Q113.99-33.4 114.35-33.88L114.35-33.88Q114.61-34.23 115.93-34.28L115.93-34.28Q116.06-34.28 116.1-34.28L116.1-34.28Q118.48-34.23 118.21-33.75L118.21-33.75Q118.08-33.62 118.08-33.49L118.08-33.49Q118.08-33.09 117.31-30.89 116.54-28.7 115.97-27.47L115.97-27.47Q115.36-26.19 115.66-26.19L115.66-26.19Q116.02-26.19 118.61-28.21L118.61-28.21Q120.81-29.93 121.33-30.26 121.86-30.59 122.26-30.45L122.26-30.45Q122.78-30.23 122.76-28.23 122.74-26.24 122.21-25.88ZM122.21-34.1L122.21-34.1Q122.74-33.75 122.67-32.85 122.61-31.95 121.99-31.95L121.99-31.95Q121.9-31.99 121.77-32.04L121.77-32.04Q121.2-32.21 120.1-32.89 119-33.57 118.96-33.79L118.96-33.79Q118.92-34.15 120.3-34.28 121.68-34.41 122.21-34.1ZM106.66-7.47L106.66-7.47Q108.46-7.16 108.68-8.7L108.68-8.7Q108.9-10.37 107.18-12.13L107.18-12.13Q106.52-12.79 105.73-13.23L105.73-13.23Q104.06-14.19 104.02-13.8L104.02-13.8Q104.02-13.58 104.33-12.79L104.33-12.79Q105.16-10.72 105.38-8.92L105.38-8.92Q105.47-8.17 105.75-7.87 106.04-7.56 106.66-7.47ZM118.13-7.78L118.13-7.78Q119.27-7.38 119.97-8.04 120.67-8.7 120.52-9.87 120.37-11.03 119.36-12L119.36-12Q117.51-13.71 115.84-13.97L115.84-13.97Q115-14.11 115.05-13.58L115.05-13.58Q115.05-13.32 115.36-12.92L115.36-12.92Q116.67-10.9 117.16-9.05L117.16-9.05Q117.47-8 118.13-7.78ZM138.96 3.78L138.96 3.78Q140.84 4.39 142.76 2.33 144.67 0.26 144.98-2.77L144.98-2.77Q145.28-5.45 144.62-6.99L144.62-6.99Q144.18-8 143.88-6.55L143.88-6.55Q143.83-6.46 143.83-6.37L143.83-6.37Q143.53-4.75 142.34-3.16 141.15-1.58 139.61-0.7L139.61-0.7Q137.64 0.4 137.44 1.8 137.24 3.21 138.96 3.78ZM174.2 3.56L174.2 3.56Q176.31 4.57 176.97 2.81L176.97 2.81Q177.63 0.97 176.22-1.58L176.22-1.58Q175.47-2.9 174.33-3.87L174.33-3.87Q171.91-5.93 168.75-7.08L168.75-7.08Q166.95-7.69 167.04-7.12L167.04-7.12Q167.08-6.9 167.48-6.46L167.48-6.46Q169.37-4.44 170.97-1.93 172.57 0.57 173.32 2.59L173.32 2.59Q173.58 3.3 174.2 3.56ZM151.7 3.08L151.7 3.08Q153.24 3.78 154.2 2.18 155.17 0.57 154.51-1.63L154.51-1.63Q153.81-3.82 151.7-5.93L151.7-5.93Q150.12-7.51 149.94-6.68L149.94-6.68Q149.94-6.46 150.03-6.02L150.03-6.02Q150.78-2.86 150.73 0.44L150.73 0.44Q150.64 1.98 150.8 2.37 150.95 2.77 151.7 3.08ZM162.99 3.08L162.99 3.08Q164.22 3.43 164.9 2.55 165.59 1.67 165.45 0.11 165.32-1.45 164.31-2.86L164.31-2.86Q162.99-4.7 160.18-6.28L160.18-6.28Q158.12-7.47 158.2-6.72L158.2-6.72Q158.25-6.5 158.47-6.15L158.47-6.15Q160.93-2.33 161.63 1.45L161.63 1.45Q161.81 2.33 162.05 2.61 162.29 2.9 162.99 3.08ZM140.1-7.91L140.1-7.91Q141.02-7.69 142.1-8.24 143.17-8.79 143.17-9.45L143.17-9.45Q143.17-9.67 143.35-9.93L143.35-9.93Q143.66-10.33 144.67-10.39 145.68-10.46 151.3-10.46L151.3-10.46Q158.38-10.46 158.64-10.55L158.64-10.55Q158.95-10.68 159.04-10.83 159.13-10.99 159.02-11.29 158.91-11.6 158.58-12 158.25-12.39 157.68-12.96L157.68-12.96Q156.18-14.46 155.72-14.5 155.26-14.55 154.38-13.23L154.38-13.23Q152.93-10.99 152.14-12.26L152.14-12.26Q151.92-12.52 151.9-15.03 151.88-17.53 152.05-17.97L152.05-17.97Q152.31-18.63 153.06-18.46 153.81-18.28 153.81-17.53L153.81-17.53Q153.81-16.7 155.79-17.53L155.79-17.53Q156.62-17.89 156.71-18.28 156.8-18.68 156.71-21.36L156.71-21.36Q156.58-24.74 156.71-25.58 156.84-26.41 157.54-26.81L157.54-26.81Q158.33-27.2 157.24-28.34L157.24-28.34Q156.53-29.05 155.48-29.53L155.48-29.53Q155.04-29.71 154.91-29.64 154.78-29.58 154.2-29L154.2-29Q152.97-27.77 152.42-28.21 151.88-28.65 151.92-30.98L151.92-30.98Q151.96-32.92 152.23-33.18L152.23-33.18Q152.58-33.57 154.82-33.57L154.82-33.57Q155.48-33.57 155.52-33.57L155.52-33.57Q158.55-33.57 158.75-34.15 158.95-34.72 156.53-36.47L156.53-36.47Q155.3-37.4 155-37.4 154.69-37.4 153.9-36.39L153.9-36.39Q153.02-35.24 152.71-35.11L152.71-35.11Q152.18-34.85 148.8-34.85L148.8-34.85Q148.27-34.85 147.83-34.85L147.83-34.85Q144.76-34.89 143.96-35 143.17-35.11 141.59-35.73L141.59-35.73 139.31-36.65Q139.17-36.65 139.44-34.01L139.44-34.01Q139.44-33.97 139.44-33.88L139.44-33.88Q139.7-31.29 139.66-23.27 139.61-15.25 139.35-10.85L139.35-10.85Q139.22-8.92 139.35-8.48 139.48-8.04 140.1-7.91ZM148.49-11.82L148.49-11.82Q148.18-11.65 146.07-11.67 143.96-11.69 143.75-11.87L143.75-11.87Q143.7-11.87 143.66-11.91L143.66-11.91Q143.31-12.08 143.24-13.43 143.17-14.77 143.17-22.59L143.17-22.59Q143.17-23.82 143.17-25.88L143.17-25.88Q143.13-32.12 143.48-32.96L143.48-32.96Q143.75-33.66 144.8-33.62L144.8-33.62Q144.89-33.62 145.2-33.62L145.2-33.62Q145.72-33.57 146.07-33.57L146.07-33.57Q146.34-33.57 146.73-33.57L146.73-33.57Q148.54-33.62 148.84-33.16 149.15-32.7 149.15-29.93L149.15-29.93Q149.15-29.4 149.15-29.09L149.15-29.09Q149.19-26.37 149.24-25.91 149.28-25.44 149.59-25.4L149.59-25.4Q150.69-25.31 151.61-26.15L151.61-26.15Q153.15-27.55 153.59-26.1L153.59-26.1Q153.81-25.31 153.81-23.33L153.81-23.33Q153.81-20.48 153.33-20.08 152.84-19.69 150.42-20.74L150.42-20.74Q148.8-21.4 148.67-21.4 148.54-21.4 148.75-19.07 148.97-16.74 149.04-14.61 149.11-12.48 148.49-11.82ZM145.02-16.66L145.02-16.66Q145.06-16.44 145.83-16.63 146.6-16.83 146.91-17.14L146.91-17.14Q147.13-17.4 147.19-18.04 147.26-18.68 147.26-21.8L147.26-21.8Q147.26-25.22 147.33-26.02 147.39-26.81 147.7-27.11L147.7-27.11Q148.23-27.6 147.35-28.08L147.35-28.08Q146.87-28.3 145.9-28.7L145.9-28.7Q144.71-29.14 144.67-28.92L144.67-28.92Q144.62-28.83 144.67-28.52L144.67-28.52Q144.89-26.24 144.93-21.36L144.93-21.36Q144.93-20.26 144.95-19.09 144.98-17.93 145-17.31 145.02-16.7 145.02-16.66ZM163.48-9.1L163.48-9.1Q164.97-8.92 169.34-9.05 173.72-9.18 174.86-9.4L174.86-9.4Q176.48-9.76 176.95-10.63 177.41-11.51 176.35-12.39L176.35-12.39Q175.87-12.83 175.72-13.29 175.56-13.75 175.52-15.34L175.52-15.34Q175.43-16.7 175.34-17.12 175.25-17.53 175.06-17.18 174.86-16.83 174.51-15.6L174.51-15.6Q174.46-15.42 174.38-15.16L174.38-15.16Q173.76-13.18 173.23-12.83L173.23-12.83Q172.66-12.39 169.72-12.39L169.72-12.39 169.32-12.39Q168.88-12.39 168.62-12.39L168.62-12.39Q165.67-12.39 165.17-12.46 164.66-12.52 164.31-12.88L164.31-12.88Q164.05-13.18 163.96-14 163.87-14.81 163.87-17.71L163.87-17.71Q163.87-18.15 163.87-18.94L163.87-18.94Q163.87-21.8 164.22-22.28L164.22-22.28Q164.58-22.72 166.42-22.68L166.42-22.68Q166.46-22.68 166.64-22.68L166.64-22.68Q167.21-22.68 167.52-22.68L167.52-22.68Q170.16-22.68 170.71-22.48 171.25-22.28 171.12-21.36L171.12-21.36Q170.86-19.6 174.16-20.83L174.16-20.83Q175.08-21.14 175.19-21.49 175.3-21.84 175.21-23.64L175.21-23.64Q175.08-26.02 175.08-28.96 175.08-31.9 175.21-32.12L175.21-32.12Q175.65-32.87 175.91-32.87L175.91-32.87Q177.19-32.87 176.09-34.28L176.09-34.28Q175.43-35.07 174.2-36.04L174.2-36.04Q173.14-36.87 172.84-36.85 172.53-36.83 171.91-35.95L171.91-35.95Q171.04-34.76 170.55-34.61 170.07-34.45 167.43-34.45L167.43-34.45Q164.97-34.45 164.44-34.56 163.92-34.67 161.76-35.6L161.76-35.6Q160.09-36.34 159.94-36.08 159.79-35.82 160.09-33L160.09-33Q160.18-32.52 160.27-21.84L160.27-21.84Q160.31-13.49 160.4-12.06 160.49-10.63 160.97-10.06L160.97-10.06Q161.72-9.27 163.48-9.1ZM170.6-24.08L170.6-24.08Q170.24-23.95 167.56-23.95 164.88-23.95 164.58-24.08L164.58-24.08Q164.09-24.3 164-24.9 163.92-25.49 163.92-28.56L163.92-28.56Q163.92-28.92 163.92-29.58L163.92-29.58Q163.92-30.72 163.89-31.16 163.87-31.6 164.03-32.15 164.18-32.7 164.22-32.81 164.27-32.92 164.75-33.09 165.23-33.27 165.52-33.24 165.81-33.22 166.77-33.22L166.77-33.22Q167.26-33.22 167.56-33.22 167.87-33.22 168.35-33.22L168.35-33.22Q169.23-33.22 169.58-33.24 169.94-33.27 170.38-33.07 170.82-32.87 170.9-32.81 170.99-32.74 171.1-32.12 171.21-31.51 171.21-31.16 171.21-30.81 171.21-29.58L171.21-29.58Q171.21-28.92 171.21-28.56L171.21-28.56Q171.21-25.4 171.15-24.85 171.08-24.3 170.6-24.08Z" transform="translate(-2.853749990463257, 37.865238189697266)"></path></g> <!----> <!----> <!----> <!----> <!----> <!----> <!----></g></g> <g data-gra="path-slogan" fill-rule="" class="tp-slogan iconsvg-slogansvg" fill="#ed6c00" transform="translate(5,47.79350662231445)"><rect x="0" height="1" y="3.9750003814697266" width="29.14834213256836"></rect> <rect height="1" y="3.9750003814697266" width="29.14834213256836" x="135.17834854125977"></rect> <g transform="translate(32.14834213256836,0)"><g transform="scale(1)"><path d="M8.06-6.05L8.06-6.05L6.94-6.05Q6.52-7.78 4.55-7.83L4.55-7.83Q1.83-7.69 1.73-4.36L1.73-4.36Q1.73-0.80 4.59-0.80L4.59-0.80Q6.56-0.84 7.03-3.19L7.03-3.19L8.16-3.19Q7.64 0.05 4.36 0.14L4.36 0.14Q0.61 0 0.52-4.31L0.52-4.31Q0.70-8.63 4.55-8.81L4.55-8.81Q7.59-8.72 8.06-6.05ZM10.69-5.06L15.19-5.06L15.19-8.58L16.36-8.58L16.36 0L15.19 0L15.19-3.98L10.69-3.98L10.69 0L9.52 0L9.52-8.58L10.69-8.58L10.69-5.06ZM23.81 0L22.97-2.48L19.50-2.48L18.61 0L17.44 0L20.67-8.58L21.98-8.58L25.08 0L23.81 0ZM21.23-7.31L19.88-3.52L22.55-3.52L21.28-7.31L21.23-7.31ZM27.52-8.58L31.83-1.64L31.83-8.58L32.95-8.58L32.95 0L31.64 0L27.28-6.94L27.23-6.94L27.23 0L26.11 0L26.11-8.58L27.52-8.58ZM41.16-3.61L38.53-3.61L38.53-4.59L42.28-4.59L42.28 0L41.53 0L41.25-1.08Q40.27 0.09 38.44 0.14L38.44 0.14Q36.70 0.14 35.77-0.75L35.77-0.75Q34.36-2.06 34.41-4.36L34.41-4.36Q34.73-8.63 38.48-8.81L38.48-8.81Q41.67-8.63 42.14-6L42.14-6L41.02-6Q40.55-7.78 38.44-7.83L38.44-7.83Q35.77-7.64 35.63-4.31L35.63-4.31Q35.63-0.75 38.48-0.75L38.48-0.75Q39.52-0.75 40.27-1.31L40.27-1.31Q41.20-2.06 41.16-3.61L41.16-3.61ZM50.34-6.09L50.34-6.09L49.27-6.09Q49.17-7.73 47.11-7.83L47.11-7.83Q45.19-7.78 45.19-6.33L45.19-6.33Q45.19-5.39 46.22-5.25L46.22-5.25L48.66-4.69Q50.58-4.22 50.58-2.34L50.58-2.34Q50.53 0.05 47.20 0.14L47.20 0.14Q45.38 0.14 44.63-0.61L44.63-0.61Q43.69-1.31 43.73-2.77L43.73-2.77L44.86-2.77Q44.91-0.80 47.20-0.75L47.20-0.75Q49.45-0.80 49.50-2.20L49.50-2.20Q49.69-3.38 47.63-3.75L47.63-3.75L45.84-4.13Q44.02-4.64 44.02-6.19L44.02-6.19Q44.16-8.72 47.02-8.81L47.02-8.81Q50.25-8.81 50.34-6.09ZM53.20-5.06L57.70-5.06L57.70-8.58L58.88-8.58L58.88 0L57.70 0L57.70-3.98L53.20-3.98L53.20 0L52.03 0L52.03-8.58L53.20-8.58L53.20-5.06ZM66.33 0L65.48-2.48L62.02-2.48L61.13 0L59.95 0L63.19-8.58L64.50-8.58L67.59 0L66.33 0ZM63.75-7.31L62.39-3.52L65.06-3.52L63.80-7.31L63.75-7.31ZM80.20-8.58L80.20 0L79.08 0L79.08-5.06Q79.08-5.77 79.08-7.22L79.08-7.22L76.64 0L75.47 0L73.08-7.22L73.03-7.22Q73.03-6.70 73.08-5.67L73.08-5.67Q73.08-5.16 73.08-5.06L73.08-5.06L73.08 0L71.91 0L71.91-8.58L73.59-8.58L76.08-1.31L78.52-8.58L80.20-8.58ZM88.69-4.27L88.69-4.27Q88.50-7.64 85.69-7.83L85.69-7.83Q82.83-7.69 82.69-4.27L82.69-4.27Q82.83-0.94 85.69-0.80L85.69-0.80Q88.50-0.98 88.69-4.27ZM89.86-4.27L89.86-4.27Q89.58 0 85.69 0.14L85.69 0.14Q81.75 0 81.47-4.27L81.47-4.27Q81.70-8.72 85.69-8.81L85.69-8.81Q89.58-8.67 89.86-4.27ZM97.97-8.58L95.06-4.41L98.11 0L96.66 0L94.31-3.52L91.97 0L90.56 0L93.66-4.41L90.75-8.58L92.20-8.58L94.36-5.30L96.56-8.58L97.97-8.58ZM99.38-8.58L100.55-8.58L100.55 0L99.38 0L99.38-8.58Z" transform="translate(-0.515625, 8.8125)"></path></g></g></g></g></g><defs v-gra="od"></defs></svg>